<?xml version="1.0" encoding="utf-8"?>
<!-- Generator: Adobe Illustrator 20.1.0, SVG Export Plug-In . SVG Version: 6.00 Build 0)  -->
<svg version="1.1" id="Layer_1" xmlns="http://www.w3.org/2000/svg" xmlns:xlink="http://www.w3.org/1999/xlink" x="0px" y="0px"
	 viewBox="0 0 149.2 172.2" style="enable-background:new 0 0 149.2 172.2;" xml:space="preserve">
<style type="text/css">
	.st0{fill:#585858;}
	.st1{display:none;fill:#FFFFFF;}
	.st2{fill:#FFFFFF;}
</style>
<polygon class="st0" points="149.2,129.2 74.6,172.2 0.1,129.2 0.1,43.1 74.6,0 149.2,43.1 "/>
<path class="st1" d="M41.9,84.8L67,111.5L54.9,84.8H41.9z M74.6,115.8l14.1-31.1H60.5L74.6,115.8z M55,79.6l8.2-15.5H52.7L41.1,79.6
	C41.1,79.6,55,79.6,55,79.6z M82.2,111.5l25.1-26.8h-13L82.2,111.5z M60.8,79.6h27.5l-8.2-15.5h-11L60.8,79.6z M94.2,79.6h13.9
	L96.5,64.1H85.9L94.2,79.6z M99.8,60l15.5,20.6c0.4,0.5,0.6,1,0.5,1.7c0,0.6-0.3,1.2-0.7,1.6l-38.7,41.2c-0.5,0.5-1.1,0.8-1.9,0.8
	c-0.8,0-1.4-0.3-1.9-0.8L34,83.9c-0.4-0.5-0.7-1-0.7-1.6c0-0.6,0.1-1.2,0.5-1.7L49.3,60c0.5-0.7,1.2-1,2.1-1h46.4
	C98.7,59,99.4,59.3,99.8,60z"/>
<path class="st2" d="M41.1,83.9V110h18.8L60,84L41.1,83.9z M82.2,110V83.9H67V110H82.2z M59.9,69.2V46.9H41.1v22.3
	C41.1,69.2,59.9,69.2,59.9,69.2z M107.9,110V83.9H89.3V110H107.9z M67,69.2h15.2V46.9H67V69.2z M89.3,69.2h18V46.9h-18V69.2z
	 M116.3,31.7c0.4,0.5-0.4,61.9-0.4,62.6c0,0.6,0.4,1.3,0,1.7v42.2c-0.5,0.5-40.5-0.2-41.2-0.2c-0.8,0-41.1,0.4-41.6-0.2l0.1-41.1
	c-0.4-0.5,0.2-1.8,0.2-2.4c0-0.6-0.4-22.9,0-23.3L33,31.7"/>
<path class="st1" d="M100.7,84.3"/>
</svg>
